<?xml version="1.0" encoding="utf-8"?>
<!-- Uploaded to: SVG Repo, www.svgrepo.com, Generator: SVG Repo Mixer Tools -->
<svg fill="#000000" version="1.2" baseProfile="tiny" id="Layer_1" xmlns="http://www.w3.org/2000/svg" xmlns:xlink="http://www.w3.org/1999/xlink"
	  viewBox="0 0 256 256" xml:space="preserve">
<g>
	<rect id="XMLID_1_" x="68.5" y="231.1" width="120.8" height="24.5"/>
	<path id="XMLID_2_" d="M86.5,223h84.6l8-27.1c-21.1-23.2-34.5-36.3-34.5-67.1c0-6.3,0.4-7.2,1-13.2h17.1V92.2H150
		c0,0,15.9-30.7,15.9-34.4c0-10.2-8.3-18.4-18.4-18.4c-5.2,0-9.8,2.1-13.2,5.6V22.5h11.1V12h-11.1V0h-10.5v12h-11.1v10.5h11.1v22.6
		c-3.4-3.5-8.1-5.7-13.3-5.7c-10.2,0-18.4,8.3-18.4,18.4c0,3.6,16.3,34.4,16.3,34.4H95v23.4h17.5c0.7,6,1,6.9,1,13.2
		c0,30.8-13.6,44.2-34.8,67.4L86.5,223z"/>
</g>
</svg>