<?xml version="1.0" encoding="utf-8"?>

<!DOCTYPE svg PUBLIC "-//W3C//DTD SVG 1.1//EN" "http://www.w3.org/Graphics/SVG/1.1/DTD/svg11.dtd">
<!-- Uploaded to: SVG Repo, www.svgrepo.com, Generator: SVG Repo Mixer Tools -->
<svg height="800px" width="800px" version="1.1" id="_x32_" xmlns="http://www.w3.org/2000/svg" xmlns:xlink="http://www.w3.org/1999/xlink" 
	 viewBox="0 0 512 512"  xml:space="preserve">
<style type="text/css">
	.st0{fill:#000000;}
</style>
<g>
	<path class="st0" d="M256,85.376c23.579,0,42.693-19.114,42.693-42.7C298.693,19.105,279.579,0,256,0
		c-23.579,0-42.684,19.105-42.684,42.675C213.316,66.262,232.421,85.376,256,85.376z"/>
	<path class="st0" d="M370.667,257.78l-31.432-111.518c-8.654-29.213-28.043-48.577-49.858-48.577c-16.173,0-33.377,0-33.377,0
		s-17.196,0-33.359,0c-21.815,0-41.222,19.364-49.875,48.577L141.333,257.78c-2.305,9.393,3.424,18.985,12.808,21.282
		c9.402,2.323,18.822-3.174,21.136-12.568l31.33-111.174h9.247l-54.512,193.385h51.398v143.449c0,10.96,8.886,19.846,19.845,19.846
		c10.976,0,19.854-8.886,19.854-19.846V348.705h10.942v143.449c0,10.96,8.895,19.846,19.862,19.846s19.845-8.886,19.845-19.846
		V348.705h47.586l-54.52-193.385h9.238l31.33,111.174c2.322,9.394,11.733,14.89,21.127,12.568
		C367.243,276.765,372.972,267.174,370.667,257.78z"/>
</g>
</svg>